<?xml version="1.0" encoding="UTF-8" standalone="no"?>
<!-- Generator: Adobe Illustrator 16.0.0, SVG Export Plug-In . SVG Version: 6.00 Build 0)  -->

<svg
   xmlns:dc="http://purl.org/dc/elements/1.1/"
   xmlns:cc="http://creativecommons.org/ns#"
   xmlns:rdf="http://www.w3.org/1999/02/22-rdf-syntax-ns#"
   xmlns:svg="http://www.w3.org/2000/svg"
   xmlns="http://www.w3.org/2000/svg"
   xmlns:sodipodi="http://sodipodi.sourceforge.net/DTD/sodipodi-0.dtd"
   xmlns:inkscape="http://www.inkscape.org/namespaces/inkscape"
   version="1.1"
   id="图层_1"
   x="0px"
   y="0px"
   width="300px"
   height="300px"
   viewBox="0 0 300 300"
   enable-background="new 0 0 300 300"
   xml:space="preserve"
   sodipodi:docname="logo-circle (copy).svg"
   inkscape:version="0.92.1 r15371"><metadata
     id="metadata17"><rdf:RDF><cc:Work
         rdf:about=""><dc:format>image/svg+xml</dc:format><dc:type
           rdf:resource="http://purl.org/dc/dcmitype/StillImage" /></cc:Work></rdf:RDF></metadata><defs
     id="defs15" /><sodipodi:namedview
     pagecolor="#ffffff"
     bordercolor="#666666"
     borderopacity="1"
     objecttolerance="10"
     gridtolerance="10"
     guidetolerance="10"
     inkscape:pageopacity="0"
     inkscape:pageshadow="2"
     inkscape:window-width="1920"
     inkscape:window-height="1016"
     id="namedview13"
     showgrid="false"
     inkscape:zoom="0.78666667"
     inkscape:cx="152.54237"
     inkscape:cy="99.152542"
     inkscape:window-x="0"
     inkscape:window-y="27"
     inkscape:window-maximized="1"
     inkscape:current-layer="g8" /><g
     id="g10"><circle
       fill="#F8427F"
       cx="150"
       cy="150"
       r="150"
       id="circle2" /><g
       transform="translate(-73.46381517970005 -263.2381632743094) scale(2.55757601340055)"
       id="g8"><g
         id="g6"
         transform="matrix(0.88135738,0,0,0.88135738,10.458821,18.387335)"><path
           d="m 116.428,163.918 c -0.049,-0.472 -0.712,-1.367 -1.746,-2.43 -0.177,-0.273 -0.412,-0.505 -0.687,-0.68 -3.149,-2.987 -8.671,-6.817 -12.375,-6.817 -5.385,0 -11.345,1.239 -13.461,1.239 -2.115,0 -9.136,-2.025 -10.098,-1.832 -0.961,0.192 -5.769,1.267 -5.769,1.267 l 0.386,-5.754 h 7.79 c 0,0 3.943,-1.799 0,-4.298 -3.943,-2.502 -6.158,-6.046 -8.177,-5.468 -2.018,0.577 0.964,-4.031 0.964,-4.031 0,0 5.578,-2.161 6.347,-3.411 0.767,-1.25 -3.751,1.614 -5.482,1.421 -1.73,-0.192 -0.481,-2.224 -0.481,-2.224 0,0 5.096,-7.122 11.636,-6.833 6.538,0.289 -1.539,-1.061 -2.115,-1.061 -0.577,0 1.249,-2.883 3.269,-3.268 2.02,-0.385 -0.576,-2.026 -4.231,1.63 -3.655,3.654 -3.366,4.329 -5.385,4.136 -2.02,-0.193 0.674,-4.328 1.923,-5.192 1.25,-0.866 0.48,-1.494 -0.192,-1.276 -0.673,0.217 -3.365,3.969 -3.846,6.468 -0.482,2.499 -2.406,4.328 -2.406,4.328 l -0.701,0.577 -0.548,0.688 -0.481,-0.562 h -0.48 c 0,0 -1.249,4.216 -2.597,4.792 -1.346,0.577 -2.309,-2.027 -2.309,-2.027 0,0 0.386,-1.063 2.309,-3.177 1.923,-2.115 3.365,-4.378 3.365,-4.378 l -0.289,-0.986 -0.961,1.045 -3.655,3.647 c 0,0 -3.557,2.016 -1.634,-1.829 1.922,-3.848 2.403,-6.539 4.519,-7.693 2.115,-1.154 5.289,-3.369 5.289,-3.369 l -0.097,-1.059 -1.057,0.77 c 0,0 -3.079,2.499 -2.982,1.634 0.098,-0.866 0.289,-2.403 0.289,-2.403 l -0.962,-0.481 -0.096,1.059 -0.193,1.633 c 0,0 -3.655,5.192 -4.231,5.577 -0.577,0.385 -1.049,-1.923 -1.049,-1.923 0,0 -1.065,-1.153 -1.065,0.674 0,1.827 0.77,2.211 0.77,2.211 0,0 -2.212,10.577 2.981,14.425 0.015,0.012 0.027,0.024 0.043,0.036 -0.644,0.2 -3.258,1.46 -4.852,9.004 -1.828,8.655 -2.789,12.405 -2.789,12.405 l 1.491,3.558 c 0,0 2.284,7.213 4.014,7.694 1.732,0.481 0.854,7.98 0.854,7.98 l 0.571,2.885 -0.027,5.867 0.645,7.792 -0.327,2.162 -0.31,5.584 -0.853,4.479 h 2.885 c 0,0 0.407,-1.788 0.407,-2.748 0,-0.96 0.43,-1.892 0.43,-1.892 l 1.079,-14.416 v -8.555 l 0.965,-0.677 1.059,9.617 0.531,0.577 -0.456,14.04 0.106,0.386 c 0,0 -1.338,2.312 -1.147,2.598 0.192,0.287 2.118,0.868 2.984,0 0.866,-0.868 0.506,-2.021 0.506,-2.021 l -0.19,-0.77 0.746,-15.675 v -6.92 l 1.298,-5.004 c 0,0 0.071,-1.346 2.283,-1.346 2.21,0 11.287,-1.443 13.595,-2.596 2.307,-1.154 2.95,-1.058 2.95,-1.058 0,0 2.245,0 3.014,2.308 0.767,2.308 7.039,7.5 7.808,8.173 0.768,0.674 6.067,3.462 1.739,12.405 -4.328,8.943 -1.629,5.675 -3.745,8.463 -2.116,2.788 -1.923,3.077 -1.635,3.462 0.289,0.384 2.213,0.192 2.693,0.192 0.483,0 1.156,-1.636 1.156,-2.309 0,-0.673 1.443,-0.385 1.635,-1.154 0.192,-0.769 0.233,-3.077 0.233,-3.077 l 0.667,-1.634 v 3.945 l -0.065,0.864 c 0,0 -2.87,4.286 -1.619,4.21 1.249,-0.076 3.374,0.001 3.374,0.001 0,0 1.207,-2.095 0.823,-3.634 -0.384,-1.54 0.696,-0.866 0.696,-0.866 l 0.785,-9.521 c 0,0 1.545,-6.54 2.892,-8.175 1.347,-1.633 -1.919,-3.365 -2.111,-3.75 -0.193,-0.384 -4.905,-6.442 0,-14.135 0.096,-0.151 0.182,-0.293 0.27,-0.437 l 0.149,0.008 1.999,5.216 c 0,0 1.803,0.394 1.803,-2.009 0.001,-2.401 -0.86,-4.464 -1.051,-6.291 z m -49.778,-25.053 -0.03,0.05 v -0.077 c 0.011,0.009 0.018,0.018 0.03,0.027 z"
           id="path4"
           inkscape:connector-curvature="0"
           style="fill:#ffffff" /></g></g></g></svg>