<svg viewBox="0 -62.000000000000014 293.85526315789474 100" xmlns="http://www.w3.org/2000/svg" width="300"><g transform="translate(-2.763157894736842 36.68421052631578) scale(1.8274853801169588)" fill="#FFFFFF"><g><path d="M1.512-50.400L1.512-48.816L5.760-48.816L5.760-1.584L1.512-1.584L1.512 0L39.672 0L41.040-16.848L39.528-16.848C37.032-11.664 34.572-7.824 32.148-5.328C29.724-2.832 26.472-1.584 22.392-1.584L19.800-1.584L19.800-48.816L27.432-48.816L27.432-50.400Z"></path><path d="M83.743 0L83.743-1.296L79.783-1.296L79.783-34.272L63.079-34.272L63.079-32.976L66.391-32.976L66.391-10.944C66.391-8.304 65.911-6.240 64.951-4.752C63.991-3.264 62.899-2.520 61.675-2.520C60.451-2.520 59.635-2.976 59.227-3.888C58.819-4.800 58.615-6.696 58.615-9.576L58.615-34.272L41.191-34.272L41.191-32.976L45.223-32.976L45.223-11.304C45.223-3.288 48.943 0.720 56.383 0.720C59.359 0.720 61.603 0.204 63.115-0.828C64.627-1.860 65.767-3.336 66.535-5.256L67.327 0Z"></path><path d="M98.582-4.860C98.054-6.516 97.790-9.864 97.790-14.904L97.790-18.648C97.790-23.928 98.078-27.624 98.654-29.736C99.230-31.848 100.310-32.904 101.894-32.904C103.478-32.904 104.678-32.184 105.494-30.744C106.310-29.304 106.718-27.552 106.718-25.488L106.718-9.792C106.718-7.344 106.202-5.496 105.170-4.248C104.138-3.000 102.914-2.376 101.498-2.376C100.082-2.376 99.110-3.204 98.582-4.860ZM107.654 0L123.638 0L123.638-1.296L120.110-1.296L120.110-54.000L102.110-54.000L102.110-52.704L106.502-52.704L106.502-31.464C105.158-33.816 102.374-34.992 98.150-34.992C88.646-34.992 83.894-29.016 83.894-17.064C83.894-11.160 85.034-6.720 87.314-3.744C89.594-0.768 92.798 0.720 96.926 0.720C101.918 0.720 105.230-1.200 106.862-5.040Z"></path><path d="M140.782-16.920C135.166-16.920 131.002-16.284 128.290-15.012C125.578-13.740 124.222-11.400 124.222-7.992C124.222-2.184 127.774 0.720 134.878 0.720C137.278 0.720 139.102 0.288 140.350-0.576C141.598-1.440 142.534-2.784 143.158-4.608C144.022-1.056 147.334 0.720 153.094 0.720C156.262 0.720 158.542-0.072 159.934-1.656C161.326-3.240 162.118-6.144 162.310-10.368L161.230-10.440C160.942-5.496 159.982-3.024 158.350-3.024C156.958-3.024 156.262-4.272 156.262-6.768L156.262-21.384C156.262-26.568 155.170-30.132 152.986-32.076C150.802-34.020 146.854-34.992 141.142-34.992C131.110-34.992 126.094-32.040 126.094-26.136C126.094-22.152 128.158-20.160 132.286-20.160C134.110-20.160 135.622-20.676 136.822-21.708C138.022-22.740 138.622-23.964 138.622-25.380C138.622-26.796 138.430-28.008 138.046-29.016L136.246-29.016C135.958-29.832 135.814-30.636 135.814-31.428C135.814-32.220 136.162-32.844 136.858-33.300C137.554-33.756 138.334-33.984 139.198-33.984C140.638-33.984 141.610-33.204 142.114-31.644C142.618-30.084 142.870-27.024 142.870-22.464L142.870-16.920ZM138.298-3.240C138.034-3.960 137.902-5.568 137.902-8.064L137.902-9.216C137.902-13.584 139.390-15.768 142.366-15.768L142.870-15.768L142.870-9.072C142.870-6.912 142.546-5.220 141.898-3.996C141.250-2.772 140.554-2.160 139.810-2.160C139.066-2.160 138.562-2.520 138.298-3.240Z"></path></g></g></svg>