<?xml version="1.0" encoding="utf-8"?>
<!-- Generator: Adobe Illustrator 16.0.0, SVG Export Plug-In . SVG Version: 6.00 Build 0)  -->
<!DOCTYPE svg PUBLIC "-//W3C//DTD SVG 1.1//EN" "http://www.w3.org/Graphics/SVG/1.1/DTD/svg11.dtd">
<svg version="1.1" xmlns="http://www.w3.org/2000/svg" xmlns:xlink="http://www.w3.org/1999/xlink" x="0px" y="0px" width="360px"
	 height="160px" viewBox="200.5 44.469 360 160" enable-background="new 200.5 44.469 360 160" xml:space="preserve">
<g id="layer_1">
	<g>
		<path fill="#F8427F" d="M560.5,194.469c0,5.5-4.5,10-10,10h-340c-5.5,0-10-4.5-10-10v-140c0-5.5,4.5-10,10-10h340
			c5.5,0,10,4.5,10,10V194.469z"/>
	</g>
	<path opacity="0.95" fill="#FFFFFF" d="M322.364,125.656c-0.062-0.584-0.881-1.694-2.158-3.006
		c-0.224-0.339-0.511-0.628-0.85-0.842c-3.899-3.696-10.734-8.436-15.317-8.436c-6.664,0-14.036,1.532-16.654,1.532
		c-2.619,0-11.308-2.505-12.496-2.268c-1.191,0.239-7.142,1.57-7.142,1.57l0.479-7.119h9.644c0,0,4.878-2.229,0-5.322
		c-4.883-3.097-7.624-7.48-10.122-6.765c-2.499,0.714,1.193-4.989,1.193-4.989s6.906-2.676,7.855-4.219
		c0.947-1.55-4.644,1.994-6.785,1.757c-2.143-0.238-0.596-2.754-0.596-2.754s6.306-8.813,14.4-8.455
		c8.09,0.359-1.904-1.312-2.616-1.312c-0.716,0,1.544-3.569,4.041-4.046c2.502-0.474-0.709-2.506-5.234,2.018
		c-4.52,4.521-4.167,5.357-6.665,5.119c-2.495-0.239,0.833-5.357,2.382-6.424c1.547-1.071,0.594-1.85-0.236-1.58
		c-0.835,0.269-4.168,4.912-4.762,8.004c-0.595,3.091-2.978,5.354-2.978,5.354l-0.865,0.716l-0.679,0.849l-0.595-0.694h-0.596
		c0,0-1.543,5.216-3.212,5.928c-1.663,0.715-2.856-2.507-2.856-2.507s0.476-1.316,2.856-3.931c2.379-2.619,4.163-5.418,4.163-5.418
		l-0.356-1.219l-1.191,1.294l-4.521,4.512c0,0-4.4,2.497-2.021-2.263c2.377-4.764,2.973-8.092,5.591-9.52
		c2.617-1.429,6.544-4.17,6.544-4.17l-0.121-1.313l-1.303,0.955c0,0-3.813,3.093-3.694,2.021c0.122-1.071,0.357-2.974,0.357-2.974
		l-1.189-0.595l-0.118,1.312l-0.24,2.019c0,0-4.523,6.425-5.234,6.901c-0.715,0.478-1.298-2.378-1.298-2.378
		s-1.317-1.426-1.317,0.835c0,2.258,0.953,2.735,0.953,2.735s-2.74,13.088,3.685,17.851c0.021,0.015,0.038,0.028,0.057,0.043
		c-0.8,0.248-4.031,1.808-6.005,11.145c-2.265,10.708-3.451,15.349-3.451,15.349l1.844,4.402c0,0,2.825,8.924,4.969,9.521
		c2.144,0.594,1.056,9.875,1.056,9.875l0.707,3.57l-0.035,7.258l0.802,9.645l-0.405,2.676l-0.383,6.907l-1.059,5.545h3.569
		c0,0,0.507-2.214,0.507-3.402c0-1.188,0.531-2.34,0.531-2.34l1.337-17.841V146.19l1.193-0.838l1.305,11.899l0.661,0.716
		l-0.563,17.371l0.131,0.476c0,0-1.66,2.861-1.422,3.221c0.238,0.354,2.621,1.069,3.692,0c1.075-1.074,0.627-2.503,0.627-2.503
		l-0.235-0.953l0.923-19.398v-8.562l1.608-6.191c0,0,0.087-1.664,2.824-1.664c2.731,0,13.964-1.789,16.826-3.213
		c2.853-1.428,3.648-1.309,3.648-1.309s2.775,0,3.728,2.855c0.95,2.857,8.713,9.28,9.664,10.114
		c0.948,0.833,7.507,4.282,2.152,15.348c-5.359,11.067-2.019,7.024-4.636,10.473c-2.619,3.449-2.381,3.809-2.025,4.284
		c0.361,0.478,2.739,0.237,3.333,0.237c0.596,0,1.432-2.021,1.432-2.857c0-0.83,1.785-0.475,2.023-1.427s0.288-3.807,0.288-3.807
		l0.826-2.02v4.876l-0.083,1.07c0,0-3.552,5.305-2.001,5.211c1.545-0.091,4.176,0.003,4.176,0.003s1.492-2.592,1.019-4.498
		c-0.478-1.904,0.862-1.073,0.862-1.073l0.97-11.781c0,0,1.913-8.093,3.581-10.115c1.663-2.02-2.376-4.163-2.614-4.642
		c-0.239-0.477-6.071-7.967,0-17.489c0.116-0.186,0.224-0.362,0.333-0.541l0.184,0.009l2.474,6.455c0,0,2.231,0.489,2.231-2.486
		C323.664,130.469,322.604,127.916,322.364,125.656z"/>
	<g opacity="0.9">
		<g opacity="0.16">
			<path d="M273.925,130.184l-0.034,0.058v-0.09C273.903,130.161,273.912,130.171,273.925,130.184z"/>
		</g>
		<g>
			<path fill="#FFFFFF" d="M265.925,122.184l-0.034,0.058v-0.09C265.903,122.161,265.912,122.171,265.925,122.184z"/>
		</g>
	</g>
	<g opacity="0.95">
		<g opacity="0.16">
			<path d="M378.753,111.25v1.396h3.744v41.638h-3.744v1.396h33.642l1.205-14.854h-1.333c-2.201,4.571-4.369,7.956-6.506,10.155
				c-2.137,2.205-5.003,3.303-8.6,3.303h-2.285v-41.638h6.728v-1.396H378.753z"/>
			<path d="M451.244,155.682v-1.145h-3.489v-29.069h-14.726v1.142h2.919v19.423c0,2.329-0.422,4.149-1.271,5.459
				c-0.846,1.313-1.809,1.967-2.886,1.967c-1.08,0-1.798-0.402-2.159-1.205c-0.358-0.805-0.539-2.477-0.539-5.015v-21.771h-15.361
				v1.142h3.555v19.107c0,7.064,3.28,10.599,9.84,10.599c2.622,0,4.6-0.455,5.934-1.365c1.333-0.91,2.337-2.211,3.015-3.904
				l0.699,4.635H451.244z"/>
			<path d="M464.327,151.398c-0.466-1.461-0.697-4.413-0.697-8.856v-3.302c0-4.652,0.254-7.911,0.762-9.774
				c0.509-1.862,1.459-2.791,2.857-2.791c1.396,0,2.453,0.632,3.173,1.902c0.718,1.268,1.078,2.814,1.078,4.634v13.837
				c0,2.159-0.455,3.79-1.364,4.887c-0.911,1.102-1.988,1.65-3.236,1.65C465.65,153.586,464.794,152.857,464.327,151.398z
				 M472.324,155.682h14.092v-1.145h-3.107v-46.46h-15.87v1.144h3.871v18.724c-1.187-2.074-3.64-3.113-7.363-3.113
				c-8.379,0-12.566,5.271-12.566,15.807c0,5.206,1.004,9.119,3.016,11.742c2.009,2.627,4.835,3.938,8.472,3.938
				c4.402,0,7.322-1.693,8.76-5.08L472.324,155.682z"/>
			<path d="M501.529,140.766c-4.949,0-8.62,0.561-11.013,1.681c-2.391,1.123-3.585,3.187-3.585,6.188
				c0,5.119,3.132,7.682,9.393,7.682c2.118,0,3.725-0.381,4.825-1.143s1.925-1.947,2.476-3.555c0.762,3.133,3.683,4.697,8.759,4.697
				c2.794,0,4.803-0.697,6.033-2.094c1.225-1.4,1.922-3.959,2.093-7.681l-0.953-0.063c-0.254,4.36-1.101,6.536-2.539,6.536
				c-1.226,0-1.84-1.098-1.84-3.297v-12.886c0-4.57-0.963-7.715-2.889-9.428c-1.927-1.713-5.406-2.572-10.441-2.572
				c-8.844,0-13.267,2.604-13.267,7.811c0,3.511,1.821,5.269,5.458,5.269c1.611,0,2.942-0.455,4-1.364
				c1.059-0.911,1.587-1.99,1.587-3.237c0-1.249-0.171-2.316-0.507-3.206h-1.588c-0.254-0.719-0.38-1.428-0.38-2.125
				c0-0.699,0.305-1.249,0.92-1.653c0.613-0.4,1.301-0.604,2.063-0.604c1.27,0,2.126,0.688,2.571,2.063
				c0.443,1.375,0.665,4.075,0.665,8.093v4.89H501.529z M499.34,152.822c-0.233-0.631-0.35-2.049-0.35-4.248v-1.017
				c0-3.852,1.313-5.777,3.937-5.777h0.443v5.905c0,1.901-0.284,3.393-0.856,4.475c-0.571,1.076-1.185,1.615-1.84,1.615
				S499.575,153.459,499.34,152.822z"/>
		</g>
		<g>
			<g>
				<path fill="#FFFFFF" d="M370.753,103.25v1.396h3.744v41.639h-3.744v1.396h33.642l1.205-14.854h-1.333
					c-2.201,4.571-4.369,7.956-6.506,10.155c-2.137,2.204-5.003,3.303-8.6,3.303h-2.285v-41.639h6.728v-1.396H370.753z"/>
				<path fill="#FFFFFF" d="M443.244,147.681v-1.145h-3.489v-29.068h-14.726v1.142h2.919v19.423c0,2.329-0.422,4.148-1.271,5.46
					c-0.846,1.313-1.809,1.966-2.886,1.966c-1.08,0-1.798-0.401-2.159-1.205c-0.358-0.804-0.539-2.476-0.539-5.015v-21.771h-15.361
					v1.142h3.555v19.107c0,7.064,3.28,10.599,9.84,10.599c2.622,0,4.6-0.454,5.934-1.365c1.333-0.909,2.337-2.211,3.015-3.904
					l0.699,4.635H443.244z"/>
				<path fill="#FFFFFF" d="M456.327,143.398c-0.466-1.461-0.697-4.412-0.697-8.855v-3.302c0-4.652,0.254-7.911,0.762-9.774
					c0.509-1.862,1.459-2.791,2.857-2.791c1.396,0,2.453,0.632,3.173,1.902c0.718,1.268,1.078,2.814,1.078,4.634v13.837
					c0,2.159-0.455,3.79-1.364,4.888c-0.911,1.101-1.988,1.65-3.236,1.65C457.65,145.586,456.794,144.858,456.327,143.398z
					 M464.324,147.681h14.092v-1.145h-3.107v-46.46h-15.87v1.144h3.871v18.724c-1.187-2.074-3.64-3.113-7.363-3.113
					c-8.379,0-12.566,5.271-12.566,15.807c0,5.206,1.004,9.119,3.016,11.741c2.009,2.628,4.835,3.938,8.472,3.938
					c4.402,0,7.322-1.693,8.76-5.079L464.324,147.681z"/>
				<path fill="#FFFFFF" d="M493.529,132.766c-4.949,0-8.62,0.561-11.013,1.681c-2.391,1.123-3.585,3.187-3.585,6.188
					c0,5.12,3.132,7.682,9.393,7.682c2.118,0,3.725-0.381,4.825-1.143c1.101-0.761,1.925-1.946,2.476-3.554
					c0.762,3.132,3.683,4.696,8.759,4.696c2.794,0,4.803-0.697,6.033-2.093c1.225-1.4,1.922-3.959,2.093-7.682l-0.953-0.063
					c-0.254,4.36-1.101,6.536-2.539,6.536c-1.226,0-1.84-1.099-1.84-3.298v-12.886c0-4.57-0.963-7.715-2.889-9.428
					c-1.927-1.713-5.406-2.572-10.441-2.572c-8.844,0-13.267,2.604-13.267,7.811c0,3.511,1.821,5.269,5.458,5.269
					c1.611,0,2.942-0.455,4-1.364c1.059-0.911,1.587-1.99,1.587-3.237c0-1.249-0.171-2.316-0.507-3.206h-1.588
					c-0.254-0.719-0.38-1.428-0.38-2.125c0-0.699,0.305-1.249,0.92-1.653c0.613-0.4,1.301-0.604,2.063-0.604
					c1.27,0,2.126,0.688,2.571,2.063c0.443,1.375,0.665,4.075,0.665,8.093v4.89H493.529z M491.34,144.823
					c-0.233-0.632-0.35-2.05-0.35-4.249v-1.017c0-3.852,1.313-5.777,3.937-5.777h0.443v5.905c0,1.901-0.284,3.394-0.856,4.476
					c-0.571,1.075-1.185,1.615-1.84,1.615S491.575,145.458,491.34,144.823z"/>
			</g>
		</g>
	</g>
</g>
</svg>
