<?xml version="1.0" encoding="utf-8"?>
<!-- Generator: Adobe Illustrator 16.0.0, SVG Export Plug-In . SVG Version: 6.00 Build 0)  -->
<!DOCTYPE svg PUBLIC "-//W3C//DTD SVG 1.1//EN" "http://www.w3.org/Graphics/SVG/1.1/DTD/svg11.dtd">
<svg version="1.1" id="图层_1" xmlns="http://www.w3.org/2000/svg" xmlns:xlink="http://www.w3.org/1999/xlink" x="0px" y="0px"
	 width="300px" height="300px" viewBox="0 0 300 300" enable-background="new 0 0 300 300" xml:space="preserve">
<g>
	<circle fill="#F8427F" cx="150" cy="150" r="150"/>
	<g transform="translate(-73.46381517970005 -263.2381632743094) scale(2.55757601340055)">
		<g>
			<path fill="#FFFFFF" d="M116.428,163.918c-0.049-0.472-0.712-1.367-1.746-2.43c-0.177-0.273-0.412-0.505-0.687-0.68
				c-3.149-2.987-8.671-6.817-12.375-6.817c-5.385,0-11.345,1.239-13.461,1.239c-2.115,0-9.136-2.025-10.098-1.832
				c-0.961,0.192-5.769,1.267-5.769,1.267l0.386-5.754h7.79c0,0,3.943-1.799,0-4.298c-3.943-2.502-6.158-6.046-8.177-5.468
				c-2.018,0.577,0.964-4.031,0.964-4.031s5.578-2.161,6.347-3.411c0.767-1.25-3.751,1.614-5.482,1.421
				c-1.73-0.192-0.481-2.224-0.481-2.224s5.096-7.122,11.636-6.833c6.538,0.289-1.539-1.061-2.115-1.061
				c-0.577,0,1.249-2.883,3.269-3.268c2.02-0.385-0.576-2.026-4.231,1.63c-3.655,3.654-3.366,4.329-5.385,4.136
				c-2.02-0.193,0.674-4.328,1.923-5.192c1.25-0.866,0.48-1.494-0.192-1.276c-0.673,0.217-3.365,3.969-3.846,6.468
				c-0.482,2.499-2.406,4.328-2.406,4.328l-0.701,0.577l-0.548,0.688l-0.481-0.562h-0.48c0,0-1.249,4.216-2.597,4.792
				c-1.346,0.577-2.309-2.027-2.309-2.027s0.386-1.063,2.309-3.177c1.923-2.115,3.365-4.378,3.365-4.378l-0.289-0.986l-0.961,1.045
				l-3.655,3.647c0,0-3.557,2.016-1.634-1.829c1.922-3.848,2.403-6.539,4.519-7.693c2.115-1.154,5.289-3.369,5.289-3.369
				l-0.097-1.059l-1.057,0.77c0,0-3.079,2.499-2.982,1.634c0.098-0.866,0.289-2.403,0.289-2.403l-0.962-0.481l-0.096,1.059
				l-0.193,1.633c0,0-3.655,5.192-4.231,5.577c-0.577,0.385-1.049-1.923-1.049-1.923s-1.065-1.153-1.065,0.674
				c0,1.827,0.77,2.211,0.77,2.211s-2.212,10.577,2.981,14.425c0.015,0.012,0.027,0.024,0.043,0.036
				c-0.644,0.2-3.258,1.46-4.852,9.004c-1.828,8.655-2.789,12.405-2.789,12.405l1.491,3.558c0,0,2.284,7.213,4.014,7.694
				c1.732,0.481,0.854,7.98,0.854,7.98l0.571,2.885l-0.027,5.867l0.645,7.792l-0.327,2.162l-0.31,5.584l-0.853,4.479h2.885
				c0,0,0.407-1.788,0.407-2.748c0-0.96,0.43-1.892,0.43-1.892l1.079-14.416v-8.555l0.965-0.677l1.059,9.617l0.531,0.577
				l-0.456,14.04l0.106,0.386c0,0-1.338,2.312-1.147,2.598c0.192,0.287,2.118,0.868,2.984,0c0.866-0.868,0.506-2.021,0.506-2.021
				l-0.19-0.77l0.746-15.675v-6.92l1.298-5.004c0,0,0.071-1.346,2.283-1.346c2.21,0,11.287-1.443,13.595-2.596
				c2.307-1.154,2.95-1.058,2.95-1.058s2.245,0,3.014,2.308c0.767,2.308,7.039,7.5,7.808,8.173
				c0.768,0.674,6.067,3.462,1.739,12.405c-4.328,8.943-1.629,5.675-3.745,8.463c-2.116,2.788-1.923,3.077-1.635,3.462
				c0.289,0.384,2.213,0.192,2.693,0.192c0.483,0,1.156-1.636,1.156-2.309c0-0.673,1.443-0.385,1.635-1.154
				c0.192-0.769,0.233-3.077,0.233-3.077l0.667-1.634v3.945l-0.065,0.864c0,0-2.87,4.286-1.619,4.21
				c1.249-0.076,3.374,0.001,3.374,0.001s1.207-2.095,0.823-3.634c-0.384-1.54,0.696-0.866,0.696-0.866l0.785-9.521
				c0,0,1.545-6.54,2.892-8.175c1.347-1.633-1.919-3.365-2.111-3.75c-0.193-0.384-4.905-6.442,0-14.135
				c0.096-0.151,0.182-0.293,0.27-0.437l0.149,0.008l1.999,5.216c0,0,1.803,0.394,1.803-2.009
				C117.48,167.808,116.619,165.745,116.428,163.918z M66.65,138.865l-0.03,0.05v-0.077
				C66.631,138.847,66.638,138.856,66.65,138.865z"/>
		</g>
	</g>
</g>
</svg>
